<svg xmlns="http://www.w3.org/2000/svg" viewBox="0 0 450.11 361.86"><defs><style>.cls-1{fill:#4d4d4d;}.cls-2{fill:#fff;}.cls-3{fill:#c69c6d;}.cls-3,.cls-4{opacity:0.7;}.cls-4{fill:#a67c52;}</style></defs><title>Asset 1</title><g id="Layer_2" data-name="Layer 2"><g id="Layer_1-2" data-name="Layer 1"><path id="Coffe_L_" data-name="Coffe &quot;L&quot;" class="cls-1" d="M203.09.15s-22.81-2.61-22.81,14.2c0,14.78-.16,323-.16,323h7v7l14,17,223.73.41s2.8,2.8,19.61-19.61H283.94s-6.83-3.8.17-3.8h166v-24l-204.19-.82s-16.81-3.18-16.81-33V14.76a16.24,16.24,0,0,0-5.24-10.28C221.22,2.15,217.25.34,211.3.34Z"/><path class="cls-1" d="M142.11,48.34c-37-4-113,51.48-137.63,160.12C-2.73,240.28-.35,253,5.4,274.1c8.85,22.59,21.77,28.75,29.44,31.3,45.22,15,125.77-61.83,125.77-61.83l3-54.28S81,281.2,49.14,263.31,41.35,111.32,140,72.55c2.56-1,3.09,0,4,.8,4.58,3.9-2.33,24.62-9.6,36.65-2.9,4.06-1.42,9.17-29.93,35.08,0,0,11.37,22.59,22.27,14.71,28.86-20.86,45.3-67.3,45.34-90.45-1-11.46-14.25-16.58-24-20C148.11,49.47,144.64,48.62,142.11,48.34Z"/><path class="cls-2" d="M347.86,101.48a28,28,0,0,1-2.21,2.14c-.52-.75-1-1.51-1.55-2.29-36.36-55.36-100.49-50-100.49-50V288.84h0v.69a2.57,2.57,0,0,0,.06.35c.61,6.61,7,11.46,13.16,11.46H427.37c1.22-.42,2.34-.85,3.39-1.3,12.87-1.49,13.33-14.85,13.33-14.85s-.23-15.08-.45-36.6V145.08l-.26,0c.13-12,.36-22.48.71-30.19C446.73,56.68,381.72,64.07,347.86,101.48Z"/><path class="cls-3" d="M443.59,114.93c-1.94,42.69,0,170.26,0,170.26s-.52,15.77-16.93,15c-16.93-.84-160.58,1.18-172.06.83-2.82-.09-11.49-8.83-11.49-11.46V110.62c45.65,4.75,87.77,9.06,104.25-9.14C381.22,64.07,446.23,56.68,443.59,114.93Z"/><path class="cls-4" d="M243.61,288.84V51.33s64.13-5.36,100.49,50,99.54,43.75,99.54,43.75V285.27s1.91,9.82-16.27,16.07H256.83C250.31,301.34,243.61,296,243.61,288.84Z"/></g></g></svg>